<mxfile host="Electron" agent="Mozilla/5.0 (X11; Linux x86_64) AppleWebKit/537.36 (KHTML, like Gecko) draw.io/25.0.1 Chrome/128.0.6613.186 Electron/32.2.6 Safari/537.36" version="25.0.1">
  <diagram name="Page-1" id="WpsCG7NA_huR-RgxeMsm">
    <mxGraphModel dx="1251" dy="1200" grid="1" gridSize="10" guides="1" tooltips="1" connect="1" arrows="1" fold="1" page="1" pageScale="1" pageWidth="1169" pageHeight="827" math="0" shadow="0">
      <root>
        <mxCell id="0" />
        <mxCell id="1" parent="0" />
        <mxCell id="25TNamNFyHdHrycDKSSu-32" value="docker compose setup" style="rounded=0;whiteSpace=wrap;html=1;align=left;verticalAlign=top;" vertex="1" parent="1">
          <mxGeometry x="810" y="350" width="250" height="140" as="geometry" />
        </mxCell>
        <mxCell id="OMbGIUVKcPjcLhoBykAW-17" value="Visions (optional?)" style="rounded=0;whiteSpace=wrap;html=1;align=left;verticalAlign=top;" parent="1" vertex="1">
          <mxGeometry x="550" y="190" width="325" height="110" as="geometry" />
        </mxCell>
        <mxCell id="OMbGIUVKcPjcLhoBykAW-12" value="AI Expert host" style="rounded=0;whiteSpace=wrap;html=1;align=left;verticalAlign=top;" parent="1" vertex="1">
          <mxGeometry x="50" y="330" width="560" height="390" as="geometry" />
        </mxCell>
        <mxCell id="OMbGIUVKcPjcLhoBykAW-13" value="docker compose setup" style="rounded=0;whiteSpace=wrap;html=1;verticalAlign=top;align=left;" parent="1" vertex="1">
          <mxGeometry x="60" y="360" width="510" height="140" as="geometry" />
        </mxCell>
        <mxCell id="OMbGIUVKcPjcLhoBykAW-9" style="edgeStyle=none;rounded=0;orthogonalLoop=1;jettySize=auto;html=1;entryX=0;entryY=0.5;entryDx=0;entryDy=0;" parent="1" source="OMbGIUVKcPjcLhoBykAW-1" target="OMbGIUVKcPjcLhoBykAW-2" edge="1">
          <mxGeometry relative="1" as="geometry" />
        </mxCell>
        <mxCell id="25TNamNFyHdHrycDKSSu-28" value="report&lt;div&gt;&lt;br&gt;&lt;/div&gt;" style="edgeLabel;html=1;align=center;verticalAlign=middle;resizable=0;points=[];" vertex="1" connectable="0" parent="OMbGIUVKcPjcLhoBykAW-9">
          <mxGeometry x="0.4" y="-2" relative="1" as="geometry">
            <mxPoint x="-12" y="-2" as="offset" />
          </mxGeometry>
        </mxCell>
        <mxCell id="OMbGIUVKcPjcLhoBykAW-1" value="nginx" style="whiteSpace=wrap;html=1;aspect=fixed;" parent="1" vertex="1">
          <mxGeometry x="310" y="390" width="80" height="80" as="geometry" />
        </mxCell>
        <mxCell id="OMbGIUVKcPjcLhoBykAW-10" value="" style="edgeStyle=none;rounded=0;orthogonalLoop=1;jettySize=auto;html=1;entryX=0;entryY=0.75;entryDx=0;entryDy=0;exitX=1;exitY=0.75;exitDx=0;exitDy=0;" parent="1" source="OMbGIUVKcPjcLhoBykAW-2" target="OMbGIUVKcPjcLhoBykAW-6" edge="1">
          <mxGeometry relative="1" as="geometry" />
        </mxCell>
        <mxCell id="25TNamNFyHdHrycDKSSu-29" value="report&lt;div&gt;&lt;br&gt;&lt;/div&gt;" style="edgeLabel;html=1;align=center;verticalAlign=middle;resizable=0;points=[];" vertex="1" connectable="0" parent="OMbGIUVKcPjcLhoBykAW-10">
          <mxGeometry x="0.3808" y="-1" relative="1" as="geometry">
            <mxPoint as="offset" />
          </mxGeometry>
        </mxCell>
        <mxCell id="OMbGIUVKcPjcLhoBykAW-19" style="edgeStyle=none;rounded=0;orthogonalLoop=1;jettySize=auto;html=1;" parent="1" source="OMbGIUVKcPjcLhoBykAW-2" target="OMbGIUVKcPjcLhoBykAW-17" edge="1">
          <mxGeometry relative="1" as="geometry" />
        </mxCell>
        <mxCell id="OMbGIUVKcPjcLhoBykAW-2" value="Provider PDC" style="whiteSpace=wrap;html=1;aspect=fixed;" parent="1" vertex="1">
          <mxGeometry x="450" y="390" width="80" height="80" as="geometry" />
        </mxCell>
        <mxCell id="OMbGIUVKcPjcLhoBykAW-7" value="" style="rounded=0;orthogonalLoop=1;jettySize=auto;html=1;" parent="1" target="OMbGIUVKcPjcLhoBykAW-4" edge="1">
          <mxGeometry relative="1" as="geometry">
            <mxPoint x="270" y="470" as="sourcePoint" />
            <mxPoint x="285" y="550" as="targetPoint" />
          </mxGeometry>
        </mxCell>
        <mxCell id="25TNamNFyHdHrycDKSSu-26" value="report" style="edgeLabel;html=1;align=center;verticalAlign=middle;resizable=0;points=[];" vertex="1" connectable="0" parent="OMbGIUVKcPjcLhoBykAW-7">
          <mxGeometry x="-0.5159" y="4" relative="1" as="geometry">
            <mxPoint as="offset" />
          </mxGeometry>
        </mxCell>
        <mxCell id="OMbGIUVKcPjcLhoBykAW-3" value="CARiSMA&lt;div&gt;Analyzer&lt;/div&gt;" style="whiteSpace=wrap;html=1;aspect=fixed;" parent="1" vertex="1">
          <mxGeometry x="210" y="390" width="80" height="80" as="geometry" />
        </mxCell>
        <mxCell id="OMbGIUVKcPjcLhoBykAW-8" value="" style="edgeStyle=none;rounded=0;orthogonalLoop=1;jettySize=auto;html=1;" parent="1" source="OMbGIUVKcPjcLhoBykAW-4" target="OMbGIUVKcPjcLhoBykAW-1" edge="1">
          <mxGeometry relative="1" as="geometry" />
        </mxCell>
        <mxCell id="25TNamNFyHdHrycDKSSu-27" value="report" style="edgeLabel;html=1;align=center;verticalAlign=middle;resizable=0;points=[];" vertex="1" connectable="0" parent="OMbGIUVKcPjcLhoBykAW-8">
          <mxGeometry x="0.33" y="2" relative="1" as="geometry">
            <mxPoint as="offset" />
          </mxGeometry>
        </mxCell>
        <mxCell id="25TNamNFyHdHrycDKSSu-3" style="edgeStyle=none;rounded=0;orthogonalLoop=1;jettySize=auto;html=1;entryX=0.25;entryY=1;entryDx=0;entryDy=0;" edge="1" parent="1" source="OMbGIUVKcPjcLhoBykAW-4" target="OMbGIUVKcPjcLhoBykAW-3">
          <mxGeometry relative="1" as="geometry">
            <mxPoint x="257.5" y="550" as="sourcePoint" />
            <mxPoint x="242.5" y="470" as="targetPoint" />
          </mxGeometry>
        </mxCell>
        <mxCell id="25TNamNFyHdHrycDKSSu-25" value="model" style="edgeLabel;html=1;align=center;verticalAlign=middle;resizable=0;points=[];" vertex="1" connectable="0" parent="25TNamNFyHdHrycDKSSu-3">
          <mxGeometry x="0.2917" y="-3" relative="1" as="geometry">
            <mxPoint as="offset" />
          </mxGeometry>
        </mxCell>
        <mxCell id="OMbGIUVKcPjcLhoBykAW-4" value="Storage" style="shape=cylinder3;whiteSpace=wrap;html=1;boundedLbl=1;backgroundOutline=1;size=15;" parent="1" vertex="1">
          <mxGeometry x="260" y="580" width="60" height="80" as="geometry" />
        </mxCell>
        <mxCell id="OMbGIUVKcPjcLhoBykAW-14" style="edgeStyle=none;rounded=0;orthogonalLoop=1;jettySize=auto;html=1;exitX=0;exitY=0.25;exitDx=0;exitDy=0;entryX=1;entryY=0.25;entryDx=0;entryDy=0;" parent="1" source="OMbGIUVKcPjcLhoBykAW-6" target="OMbGIUVKcPjcLhoBykAW-2" edge="1">
          <mxGeometry relative="1" as="geometry" />
        </mxCell>
        <mxCell id="OMbGIUVKcPjcLhoBykAW-18" style="edgeStyle=none;rounded=0;orthogonalLoop=1;jettySize=auto;html=1;" parent="1" source="OMbGIUVKcPjcLhoBykAW-6" target="OMbGIUVKcPjcLhoBykAW-17" edge="1">
          <mxGeometry relative="1" as="geometry" />
        </mxCell>
        <mxCell id="OMbGIUVKcPjcLhoBykAW-6" value="Consumer PDC" style="whiteSpace=wrap;html=1;aspect=fixed;" parent="1" vertex="1">
          <mxGeometry x="840" y="390" width="80" height="80" as="geometry" />
        </mxCell>
        <mxCell id="OMbGIUVKcPjcLhoBykAW-15" value="Catalog" style="rounded=0;whiteSpace=wrap;html=1;" parent="1" vertex="1">
          <mxGeometry x="580" y="220" width="120" height="60" as="geometry" />
        </mxCell>
        <mxCell id="OMbGIUVKcPjcLhoBykAW-16" value="Contract" style="rounded=0;whiteSpace=wrap;html=1;" parent="1" vertex="1">
          <mxGeometry x="730" y="220" width="120" height="60" as="geometry" />
        </mxCell>
        <mxCell id="25TNamNFyHdHrycDKSSu-2" value="&lt;div&gt;&lt;br&gt;&lt;/div&gt;&lt;div&gt;&lt;br&gt;&lt;/div&gt;" style="edgeStyle=none;rounded=0;orthogonalLoop=1;jettySize=auto;html=1;" edge="1" parent="1" source="25TNamNFyHdHrycDKSSu-1" target="OMbGIUVKcPjcLhoBykAW-4">
          <mxGeometry relative="1" as="geometry" />
        </mxCell>
        <mxCell id="25TNamNFyHdHrycDKSSu-24" value="model" style="edgeLabel;html=1;align=center;verticalAlign=middle;resizable=0;points=[];" vertex="1" connectable="0" parent="25TNamNFyHdHrycDKSSu-2">
          <mxGeometry x="-0.2996" y="-5" relative="1" as="geometry">
            <mxPoint as="offset" />
          </mxGeometry>
        </mxCell>
        <mxCell id="25TNamNFyHdHrycDKSSu-1" value="CARiSMA&lt;div&gt;Modeller&lt;/div&gt;" style="whiteSpace=wrap;html=1;aspect=fixed;" vertex="1" parent="1">
          <mxGeometry x="90" y="390" width="80" height="80" as="geometry" />
        </mxCell>
        <mxCell id="25TNamNFyHdHrycDKSSu-4" value="AI scenario model&lt;br&gt;(report)" style="swimlane;fontStyle=0;childLayout=stackLayout;horizontal=1;startSize=30;horizontalStack=0;resizeParent=1;resizeParentMax=0;resizeLast=0;collapsible=1;marginBottom=0;whiteSpace=wrap;html=1;fillColor=none;strokeColor=default;" vertex="1" parent="1">
          <mxGeometry x="60" y="550" width="137" height="120" as="geometry" />
        </mxCell>
        <mxCell id="25TNamNFyHdHrycDKSSu-5" value="AI Algorithm(s)" style="text;strokeColor=none;fillColor=none;align=left;verticalAlign=middle;spacingLeft=4;spacingRight=4;overflow=hidden;points=[[0,0.5],[1,0.5]];portConstraint=eastwest;rotatable=0;whiteSpace=wrap;html=1;" vertex="1" parent="25TNamNFyHdHrycDKSSu-4">
          <mxGeometry y="30" width="137" height="30" as="geometry" />
        </mxCell>
        <mxCell id="25TNamNFyHdHrycDKSSu-6" value="(Personal)&amp;nbsp;&lt;span style=&quot;background-color: initial;&quot;&gt;Data&lt;/span&gt;" style="text;strokeColor=none;fillColor=none;align=left;verticalAlign=middle;spacingLeft=4;spacingRight=4;overflow=hidden;points=[[0,0.5],[1,0.5]];portConstraint=eastwest;rotatable=0;whiteSpace=wrap;html=1;" vertex="1" parent="25TNamNFyHdHrycDKSSu-4">
          <mxGeometry y="60" width="137" height="30" as="geometry" />
        </mxCell>
        <mxCell id="25TNamNFyHdHrycDKSSu-7" value="Involved Participants" style="text;strokeColor=none;fillColor=none;align=left;verticalAlign=middle;spacingLeft=4;spacingRight=4;overflow=hidden;points=[[0,0.5],[1,0.5]];portConstraint=eastwest;rotatable=0;whiteSpace=wrap;html=1;" vertex="1" parent="25TNamNFyHdHrycDKSSu-4">
          <mxGeometry y="90" width="137" height="30" as="geometry" />
        </mxCell>
        <mxCell id="25TNamNFyHdHrycDKSSu-14" value="AI Analysis Report&lt;br&gt;(report)" style="swimlane;fontStyle=0;childLayout=stackLayout;horizontal=1;startSize=30;horizontalStack=0;resizeParent=1;resizeParentMax=0;resizeLast=0;collapsible=1;marginBottom=0;whiteSpace=wrap;html=1;fillColor=none;strokeColor=default;" vertex="1" parent="1">
          <mxGeometry x="400" y="520" width="180" height="180" as="geometry" />
        </mxCell>
        <mxCell id="25TNamNFyHdHrycDKSSu-15" value="Participant Information" style="text;strokeColor=none;fillColor=none;align=left;verticalAlign=middle;spacingLeft=4;spacingRight=4;overflow=hidden;points=[[0,0.5],[1,0.5]];portConstraint=eastwest;rotatable=0;whiteSpace=wrap;html=1;" vertex="1" parent="25TNamNFyHdHrycDKSSu-14">
          <mxGeometry y="30" width="180" height="30" as="geometry" />
        </mxCell>
        <mxCell id="25TNamNFyHdHrycDKSSu-16" value="Algorithm information" style="text;strokeColor=none;fillColor=none;align=left;verticalAlign=middle;spacingLeft=4;spacingRight=4;overflow=hidden;points=[[0,0.5],[1,0.5]];portConstraint=eastwest;rotatable=0;whiteSpace=wrap;html=1;" vertex="1" parent="25TNamNFyHdHrycDKSSu-14">
          <mxGeometry y="60" width="180" height="30" as="geometry" />
        </mxCell>
        <mxCell id="25TNamNFyHdHrycDKSSu-17" value="Data Information" style="text;strokeColor=none;fillColor=none;align=left;verticalAlign=middle;spacingLeft=4;spacingRight=4;overflow=hidden;points=[[0,0.5],[1,0.5]];portConstraint=eastwest;rotatable=0;whiteSpace=wrap;html=1;" vertex="1" parent="25TNamNFyHdHrycDKSSu-14">
          <mxGeometry y="90" width="180" height="30" as="geometry" />
        </mxCell>
        <mxCell id="25TNamNFyHdHrycDKSSu-18" value="Metrics" style="text;strokeColor=none;fillColor=none;align=left;verticalAlign=middle;spacingLeft=4;spacingRight=4;overflow=hidden;points=[[0,0.5],[1,0.5]];portConstraint=eastwest;rotatable=0;whiteSpace=wrap;html=1;" vertex="1" parent="25TNamNFyHdHrycDKSSu-14">
          <mxGeometry y="120" width="180" height="30" as="geometry" />
        </mxCell>
        <mxCell id="25TNamNFyHdHrycDKSSu-19" value="Risks" style="text;strokeColor=none;fillColor=none;align=left;verticalAlign=middle;spacingLeft=4;spacingRight=4;overflow=hidden;points=[[0,0.5],[1,0.5]];portConstraint=eastwest;rotatable=0;whiteSpace=wrap;html=1;" vertex="1" parent="25TNamNFyHdHrycDKSSu-14">
          <mxGeometry y="150" width="180" height="30" as="geometry" />
        </mxCell>
        <mxCell id="25TNamNFyHdHrycDKSSu-33" style="edgeStyle=none;rounded=0;orthogonalLoop=1;jettySize=auto;html=1;entryX=1;entryY=0.5;entryDx=0;entryDy=0;startArrow=classic;startFill=1;" edge="1" parent="1" source="25TNamNFyHdHrycDKSSu-31" target="OMbGIUVKcPjcLhoBykAW-6">
          <mxGeometry relative="1" as="geometry" />
        </mxCell>
        <mxCell id="25TNamNFyHdHrycDKSSu-31" value="Data Visualization BB" style="whiteSpace=wrap;html=1;aspect=fixed;" vertex="1" parent="1">
          <mxGeometry x="960" y="390" width="80" height="80" as="geometry" />
        </mxCell>
        <mxCell id="25TNamNFyHdHrycDKSSu-35" value="Data Subject" style="shape=umlActor;verticalLabelPosition=top;verticalAlign=bottom;html=1;outlineConnect=0;horizontal=1;labelPosition=center;align=center;" vertex="1" parent="1">
          <mxGeometry x="1020" y="240" width="30" height="60" as="geometry" />
        </mxCell>
        <mxCell id="25TNamNFyHdHrycDKSSu-36" value="uses" style="endArrow=none;dashed=1;html=1;rounded=0;" edge="1" parent="1" source="25TNamNFyHdHrycDKSSu-35" target="25TNamNFyHdHrycDKSSu-31">
          <mxGeometry x="-0.5831" y="6" width="50" height="50" relative="1" as="geometry">
            <mxPoint x="1177" y="470" as="sourcePoint" />
            <mxPoint x="1005" y="300" as="targetPoint" />
            <mxPoint as="offset" />
          </mxGeometry>
        </mxCell>
        <mxCell id="25TNamNFyHdHrycDKSSu-38" value="Use Case Lead&lt;br&gt;AI Expert" style="shape=umlActor;verticalLabelPosition=top;verticalAlign=bottom;html=1;outlineConnect=0;labelPosition=center;align=center;fontFamily=Helvetica;" vertex="1" parent="1">
          <mxGeometry x="170" y="215" width="30" height="60" as="geometry" />
        </mxCell>
        <mxCell id="25TNamNFyHdHrycDKSSu-39" value="uses" style="endArrow=none;dashed=1;html=1;rounded=0;" edge="1" parent="1" source="25TNamNFyHdHrycDKSSu-38" target="OMbGIUVKcPjcLhoBykAW-3">
          <mxGeometry x="-0.5737" y="7" width="50" height="50" relative="1" as="geometry">
            <mxPoint x="400" y="480" as="sourcePoint" />
            <mxPoint x="298" y="310" as="targetPoint" />
            <mxPoint as="offset" />
          </mxGeometry>
        </mxCell>
        <mxCell id="25TNamNFyHdHrycDKSSu-40" value="uses" style="endArrow=none;dashed=1;html=1;rounded=0;" edge="1" parent="1" source="25TNamNFyHdHrycDKSSu-38" target="25TNamNFyHdHrycDKSSu-1">
          <mxGeometry x="-0.5686" y="-10" width="50" height="50" relative="1" as="geometry">
            <mxPoint x="400" y="480" as="sourcePoint" />
            <mxPoint x="165" y="310" as="targetPoint" />
            <mxPoint as="offset" />
          </mxGeometry>
        </mxCell>
      </root>
    </mxGraphModel>
  </diagram>
</mxfile>
